<svg xmlns="http://www.w3.org/2000/svg" width="324.619" height="314.849" viewBox="0 0 324.619 314.849">
  <g id="_404_eror" data-name="404 eror" transform="translate(-176.536 -765.862)">
    <path id="Path_41" data-name="Path 41" d="M535.418,1345.362l-3.558,11.78h-5.578l-3.221-11.78Z" transform="translate(-34.375 -307.176) rotate(2)" fill="#ff8170"/>
    <g id="kafsh" transform="matrix(0.97, -0.242, 0.242, 0.97, -393.462, -121.901)">
      <path id="Path_30" data-name="Path 30" d="M557.585,1366.725H525.762l-.433-13.1h9.742v5.2s7.036-.352,12.664,1.625A29.136,29.136,0,0,1,557.585,1366.725Z" transform="translate(-1 -1)" fill="#1b384a"/>
      <path id="Path_31" data-name="Path 31" d="M543.391,1358.547l-1.936,7.2,15.155-.017a33.057,33.057,0,0,0-6.319-4.713A27.4,27.4,0,0,0,543.391,1358.547Z" fill="#811b43"/>
      <path id="Path_32" data-name="Path 32" d="M534.032,1366.752h-8.266l-.2-6.391a11.237,11.237,0,0,1,5.121,1.816A15.09,15.09,0,0,1,534.032,1366.752Z" transform="translate(-1 -1)" fill="#811b43"/>
      <path id="Path_33" data-name="Path 33" d="M538.525,1360.216a22.9,22.9,0,0,1,.63-2.244A22.907,22.907,0,0,1,538.525,1360.216Z" transform="translate(-183.911 88.216) rotate(-8)" fill="none" stroke="#fff" stroke-width="1"/>
      <path id="Path_34" data-name="Path 34" d="M538.525,1360.216a19.218,19.218,0,0,1,.573-2.343A19.224,19.224,0,0,1,538.525,1360.216Z" transform="matrix(0.985, -0.174, 0.174, 0.985, -229.825, 114.213)" fill="none" stroke="#fff" stroke-width="1"/>
      <path id="Path_35" data-name="Path 35" d="M538.525,1360.216c-.244.589.423-2.4.423-2.4A13.861,13.861,0,0,1,538.525,1360.216Z" transform="matrix(0.985, -0.174, 0.174, 0.985, -231.825, 114.213)" fill="none" stroke="#fff" stroke-width="1"/>
      <path id="Path_36" data-name="Path 36" d="M533.08,1355.994c.161-.54,1.92-3.387,3.268-3.964s3.027.371,2.239,1.265S533.08,1355.994,533.08,1355.994Z" transform="translate(-468.253 299.57) rotate(-22)" fill="none" stroke="#fff" stroke-width="1"/>
      <path id="Path_37" data-name="Path 37" d="M0,2.254C.118,1.972,1.09.394,2.084.092s2.232.194,1.65.661A24.522,24.522,0,0,1,0,2.254Z" transform="matrix(0.978, 0.208, -0.208, 0.978, 535.13, 1355.081)" fill="none" stroke="#fff" stroke-width="1"/>
    </g>
    <path id="Path_40" data-name="Path 40" d="M535.418,1347.572H522.141a244.218,244.218,0,0,0-3.356-29.034c1.167-9.383-4.447-35.441-4.281-38.92s-26.639-63.9-26.639-63.9l23.45-3.147s1.782-11.629,9.511,4.234c6.571,13.486,19.063,54.365,20.893,58.751C545.628,1284.93,535.418,1347.572,535.418,1347.572Z" transform="translate(-34.133 -308.146) rotate(2)" fill="#3d2532"/>
    <path id="Path_43" data-name="Path 43" d="M475.978,1060.7s-1.992-52.065-3.286-64.364-29.079-67.253-29.079-67.253" transform="translate(104.585 -54.17) rotate(7)" fill="none" stroke="#707070" stroke-width="1" opacity="0.13"/>
    <g id="jabe_ha" data-name="jabe ha">
      <rect id="Rectangle_2" data-name="Rectangle 2" width="97" height="239" transform="translate(277 841)" fill="#71496b"/>
      <path id="Path_1" data-name="Path 1" d="M277,920.539h97" fill="none" stroke="#fff" stroke-width="2.5"/>
      <path id="Path_2" data-name="Path 2" d="M325.071,841v239" fill="none" stroke="#fff" stroke-width="3"/>
      <rect id="Rectangle_3" data-name="Rectangle 3" width="73" height="57" transform="translate(301 783)" fill="#557571"/>
      <path id="Path_6" data-name="Path 6" d="M337.5,783.613v57" transform="translate(0 -0.613)" fill="none" stroke="#fff" stroke-width="2"/>
      <path id="Path_7" data-name="Path 7" d="M301,811.5h73" fill="none" stroke="#fff" stroke-width="2"/>
      <path id="Path_8" data-name="Path 8" d="M295.562,885.063s-3.078-6.017-1.966-7.6,6.828-2.2,6.414,1.267-7.591,9.09-8.069,12.592,5.25,2.98,6.155,1.416S295.562,885.063,295.562,885.063Z" transform="matrix(0.719, 0.695, -0.695, 0.719, 739.498, -30.286)" fill="none" stroke="#fff" stroke-width="2"/>
      <path id="Path_9" data-name="Path 9" d="M295.562,885.063s-3.078-6.017-1.966-7.6,6.828-2.2,6.414,1.267-7.591,9.09-8.069,12.592,5.25,2.98,6.155,1.416S295.562,885.063,295.562,885.063Z" transform="translate(-482.495 366.533) rotate(-43)" fill="none" stroke="#fff" stroke-width="2"/>
      <rect id="Rectangle_4" data-name="Rectangle 4" width="89" height="98" transform="translate(186 982)" fill="#69b5ac"/>
      <path id="Path_10" data-name="Path 10" d="M274.25,984.5l-87.5,96.531" transform="translate(0 -1.729)" fill="none" stroke="#fff" stroke-linecap="round" stroke-width="2"/>
      <path id="Path_11" data-name="Path 11" d="M273.931,984.237l-86.878,97.05" transform="matrix(-0.105, 0.995, -0.995, -0.105, 1281.698, 909.748)" fill="none" stroke="#fff" stroke-linecap="round" stroke-width="1.5"/>
      <g id="Group_1" data-name="Group 1" transform="translate(0 6)">
        <path id="Path_13" data-name="Path 13" d="M295.562,885.063s-3.078-6.017-1.966-7.6,6.828-2.2,6.414,1.267-7.591,9.09-8.069,12.592,5.25,2.98,6.155,1.416S295.562,885.063,295.562,885.063Z" transform="matrix(0.719, 0.695, -0.695, 0.719, 632.498, 182.714)" fill="none" stroke="#fff" stroke-width="2"/>
        <path id="Path_12" data-name="Path 12" d="M295.562,885.063s-3.078-6.017-1.966-7.6,6.828-2.2,6.414,1.267-7.591,9.09-8.069,12.592,5.25,2.98,6.155,1.416S295.562,885.063,295.562,885.063Z" transform="translate(-589.495 579.533) rotate(-43)" fill="none" stroke="#fff" stroke-width="2"/>
      </g>
      <path id="Path_14" data-name="Path 14" d="M230.5,1032.216s-3.837,7-4.326,13.786,4.954,8.4,2.369,13.355-10.124,9.693-10.124,9.693" fill="none" stroke="#fff" stroke-width="1"/>
      <path id="Path_15" data-name="Path 15" d="M230.5,1032.216s-3.837,7-4.326,13.786,4.954,8.4,2.369,13.355-10.124,9.693-10.124,9.693" transform="translate(-415.987 195.297) rotate(-25)" fill="none" stroke="#fff" stroke-width="1"/>
      <rect id="Rectangle_5" data-name="Rectangle 5" width="35" height="57" transform="translate(236 922)" fill="#9cada4"/>
      <path id="Path_16" data-name="Path 16" d="M236,938.085h35" fill="none" stroke="#fff" stroke-width="1.5"/>
      <path id="Path_17" data-name="Path 17" d="M236,945.074h35" fill="none" stroke="#fff" stroke-width="1.5"/>
      <g id="Ellipse_1" data-name="Ellipse 1" transform="translate(237 941)" fill="#fff" stroke="#fff" stroke-width="1">
        <circle cx="1" cy="1" r="1" stroke="none"/>
        <circle cx="1" cy="1" r="0.5" fill="none"/>
      </g>
      <g id="Ellipse_2" data-name="Ellipse 2" transform="translate(240 941)" fill="#fff" stroke="#fff" stroke-width="1">
        <circle cx="1" cy="1" r="1" stroke="none"/>
        <circle cx="1" cy="1" r="0.5" fill="none"/>
      </g>
      <g id="Ellipse_3" data-name="Ellipse 3" transform="translate(243 941)" fill="#fff" stroke="#fff" stroke-width="1">
        <circle cx="1" cy="1" r="1" stroke="none"/>
        <circle cx="1" cy="1" r="0.5" fill="none"/>
      </g>
    </g>
    <path id="Path_74" data-name="Path 74" d="M618.433,1201.654s-3.657-14.743,1.059-17.075,9.111.369,12.762-1.622,1.071-15.843,1.134-16.458,4.554-1.573,4.417-1.993a57.168,57.168,0,0,0-4.68-4.108l-6.149-14.227-29.332,15.177v17.46l2.41,23.666" transform="translate(-18.685 -446.415) rotate(9)" fill="#ff9392"/>
    <path id="Path_45" data-name="Path 45" d="M380.04,1249.493s18.7-2.368,24.521,1.947,15.211,13.863,25.676,19.419,16.182,2.805,16.182,2.805l10.788-22.224-39.269-14.888-23.734,4.1Z" transform="translate(-925.714 848.991) rotate(-67)" fill="#650d0d"/>
    <g id="Group_2" data-name="Group 2" transform="translate(-21)">
      <path id="Path_38" data-name="Path 38" d="M535.418,1345.362l-3.558,11.78h-5.578l-3.221-11.78Z" transform="translate(-78 -286)" fill="#ff8170"/>
      <g id="kafsh-2" data-name="kafsh" transform="translate(-78 -286)">
        <path id="Path_30-2" data-name="Path 30" d="M557.585,1366.725H525.762l-.433-13.1h9.742v5.2s7.036-.352,12.664,1.625A29.136,29.136,0,0,1,557.585,1366.725Z" transform="translate(-1 -1)" fill="#1b384a"/>
        <path id="Path_31-2" data-name="Path 31" d="M543.391,1358.547l-1.936,7.2,15.155-.017a33.057,33.057,0,0,0-6.319-4.713A27.4,27.4,0,0,0,543.391,1358.547Z" fill="#811b43"/>
        <path id="Path_32-2" data-name="Path 32" d="M534.032,1366.752h-8.266l-.2-6.391a11.237,11.237,0,0,1,5.121,1.816A15.09,15.09,0,0,1,534.032,1366.752Z" transform="translate(-1 -1)" fill="#811b43"/>
        <path id="Path_33-2" data-name="Path 33" d="M538.525,1360.216a22.9,22.9,0,0,1,.63-2.244A22.907,22.907,0,0,1,538.525,1360.216Z" transform="translate(-183.911 88.216) rotate(-8)" fill="none" stroke="#fff" stroke-width="1"/>
        <path id="Path_34-2" data-name="Path 34" d="M538.525,1360.216a19.218,19.218,0,0,1,.573-2.343A19.224,19.224,0,0,1,538.525,1360.216Z" transform="matrix(0.985, -0.174, 0.174, 0.985, -229.825, 114.213)" fill="none" stroke="#fff" stroke-width="1"/>
        <path id="Path_35-2" data-name="Path 35" d="M538.525,1360.216c-.244.589.423-2.4.423-2.4A13.861,13.861,0,0,1,538.525,1360.216Z" transform="matrix(0.985, -0.174, 0.174, 0.985, -231.825, 114.213)" fill="none" stroke="#fff" stroke-width="1"/>
        <path id="Path_36-2" data-name="Path 36" d="M533.08,1355.994c.161-.54,1.92-3.387,3.268-3.964s3.027.371,2.239,1.265S533.08,1355.994,533.08,1355.994Z" transform="translate(-468.253 299.57) rotate(-22)" fill="none" stroke="#fff" stroke-width="1"/>
        <path id="Path_37-2" data-name="Path 37" d="M0,2.254C.118,1.972,1.09.394,2.084.092s2.232.194,1.65.661A24.522,24.522,0,0,1,0,2.254Z" transform="matrix(0.978, 0.208, -0.208, 0.978, 535.13, 1355.081)" fill="none" stroke="#fff" stroke-width="1"/>
      </g>
      <path id="Path_39" data-name="Path 39" d="M537.106,1347.572H522.141a101.563,101.563,0,0,1-6.638-28.063c-1.452-16.02.664-32.537.83-36.016s-24.273-43.234-29.542-67.382,8.465-29.211,8.465-29.211l31.619,22.739s21.275,51.83,21.922,67.149S537.106,1347.572,537.106,1347.572Z" transform="translate(-78 -286)" fill="#34212b"/>
    </g>
    <path id="Path_42" data-name="Path 42" d="M451.761,1061.644s7.711-59.5,5.229-67.4-28.05-84.365-28.05-84.365" transform="translate(-21 -2)" fill="none" stroke="#707070" stroke-width="1" opacity="0.45"/>
    <g id="kot" transform="translate(-925.714 848.991) rotate(-67)">
      <path id="Path_46" data-name="Path 46" d="M1.914-1.906l3.223-1.9s24.145,19.244,26.34,40.747c1.721,16.856,9.835,48.531,8.783,49.8s-18.9.728-27.968-2.187C-1.411,80.149,0,73,0,73Z" transform="translate(528.896 1217.873) rotate(67)" fill="#941f39"/>
      <path id="Path_44" data-name="Path 44" d="M527.44,1221.1l-8.864-24.2s-23.519-1.453-32.443,2.652-31.877,13.484-44.714,18.246-34.249,2.778-46.15,4.71-9.809,5.908-16.721,8.577-10.929,2.1-10.929,2.1,2.912,3.9,10.561,2.107,17.334-6.567,25.092-5.1,26.214,21.393,50.2,24.7,27.446-9.9,43.745-12.352S527.44,1221.1,527.44,1221.1Z" transform="translate(-97.657 50.703) rotate(-5)" fill="#fda803"/>
    </g>
    <path id="Path_61" data-name="Path 61" d="M471.914,1240.133l10.98,14.172,57.064,2.324s2.74,2.588,5.756,2.588a5.449,5.449,0,0,0,5.107-2.99,2.479,2.479,0,0,0-1.892-2.964c-1.444-.28-4.917.35-4.763,0s3.881-3.418,2.829-3.418-7.037,3.418-7.037,3.418L490.774,1242.7l-6.29-6.653-10.271-.769" transform="translate(114.561 -436.037) rotate(8)" fill="#ff6f68"/>
    <g id="kot-2" data-name="kot" transform="translate(-925.714 848.991) rotate(-67)">
      <path id="Path_46-2" data-name="Path 46" d="M1.914-1.906H3.477S28.419,14.572,30.615,36.075c1.721,16.856,13.566,49.869,12.514,51.137s-21.765.254-30.836-2.661C-1.411,80.149,0,73,0,73Z" transform="translate(528.896 1217.873) rotate(67)" fill="#941f39"/>
      <path id="Path_44-2" data-name="Path 44" d="M527.44,1221.1s-5.4-22.92-8.548-24.341-23.834-1.314-32.759,2.791-31.877,13.484-44.714,18.246-34.249,2.778-46.15,4.71-9.809,5.908-16.721,8.577-10.929,2.1-10.929,2.1,2.912,3.9,10.561,2.107,17.334-6.567,25.092-5.1,26.214,21.393,50.2,24.7,27.446-9.9,43.745-12.352S527.44,1221.1,527.44,1221.1Z" transform="translate(-97.657 50.703) rotate(-5)" fill="#c13838"/>
    </g>
    <g id="Group_3" data-name="Group 3" transform="translate(1 1)">
      <path id="Path_47" data-name="Path 47" d="M399.707,904.039c-.86-.942-12.157-1.267-12.9,0s-.415,10.5,0,10.939,12.461.451,12.9,0S400.567,904.981,399.707,904.039Z" fill="none" stroke="#f18800" stroke-width="1"/>
      <path id="Path_48" data-name="Path 48" d="M386.91,904.109s3.353,6.086,6.568,6.086,6.293-6.086,6.293-6.086" fill="none" stroke="#f18800" stroke-width="1"/>
      <g id="Ellipse_4" data-name="Ellipse 4" transform="translate(392 906)" fill="#fff" stroke="#fff" stroke-width="1">
        <circle cx="1" cy="1" r="1" stroke="none"/>
        <circle cx="1" cy="1" r="0.5" fill="none"/>
      </g>
      <path id="Path_49" data-name="Path 49" d="M375.1,878l42.515-1.4" fill="none" stroke="#f18800" stroke-width="1"/>
      <path id="Path_60" data-name="Path 60" d="M471.914,1240.133l10.98,14.172,57.064,2.324s2.74,2.588,5.756,2.588a5.449,5.449,0,0,0,5.107-2.99,2.479,2.479,0,0,0-1.892-2.964c-1.444-.28-4.917.35-4.763,0s4.245-2.6,3.194-2.6-7.4,2.6-7.4,2.6L494.384,1240.9l-6.767-5.618H474.212" transform="translate(-70 -368)" fill="#ff807a"/>
      <path id="Path_50" data-name="Path 50" d="M393.427,835.076l1.67,41.837" fill="none" stroke="#f18800" stroke-width="1"/>
      <g id="Path_51" data-name="Path 51" transform="translate(385.99 855.371) rotate(-40)" fill="#fda803">
        <path d="M 17.41973304748535 32.5 L 0.6186191439628601 32.5 C 0.4895876944065094 30.78797721862793 0.03882662951946259 24.55830383300781 -0.2024151235818863 18.02916145324707 C -0.6950751543045044 4.695400714874268 0.08448487520217896 1.161630630493164 0.5930248498916626 0.2419506758451462 C 1.113534927368164 -0.6993693113327026 2.291814804077148 -1.556249380111694 3.910824775695801 -2.170829296112061 C 5.522814750671387 -2.782759428024292 7.467235088348389 -3.119759321212769 9.38591480255127 -3.119759321212769 C 11.14849472045898 -3.119759321212769 12.80080509185791 -2.836369276046753 14.16422462463379 -2.30022931098938 C 15.66016483306885 -1.711989283561707 16.76149559020996 -0.8505993485450745 17.43762397766113 0.2600006759166718 C 18.35041427612305 1.759350657463074 19.29560470581055 6.14430046081543 18.61487579345703 18.5195198059082 C 18.2637882232666 24.90217018127441 17.60763168334961 30.86398315429688 17.41973304748535 32.5 Z" stroke="none"/>
        <path d="M 9.38591480255127 -2.619758605957031 C 5.600984573364258 -2.619758605957031 2.008974075317383 -1.285469055175781 1.030584335327148 0.4839000701904297 C 0.6414356231689453 1.187681198120117 -0.2090549468994141 4.304050445556641 0.2971343994140625 18.0077018737793 C 0.5198745727539063 24.0375919342041 0.9216461181640625 29.81272125244141 1.082763671875 32 L 16.97324562072754 32 C 17.20770835876465 29.90893936157227 17.79209136962891 24.37668991088867 18.11590576171875 18.48719024658203 C 18.82456398010254 5.598060607910156 17.7275447845459 1.697750091552734 17.01054382324219 0.5200099945068359 C 16.39248466491699 -0.4952201843261719 15.3732852935791 -1.287528991699219 13.98125457763672 -1.834918975830078 C 12.67553520202637 -2.348369598388672 11.08649444580078 -2.619758605957031 9.38591480255127 -2.619758605957031 M 9.38591480255127 -3.619754791259766 C 12.86245155334473 -3.619754791259766 16.31322288513184 -2.548456192016602 17.86470413208008 0 C 21.19577407836914 5.471620559692383 17.86470413208008 33 17.86470413208008 33 L 0.1554641723632813 33 C 0.1554641723632813 33 -2.131004333496094 4.135009765625 0.1554641723632813 0 C 1.376989364624023 -2.209089279174805 5.39821720123291 -3.619754791259766 9.38591480255127 -3.619754791259766 Z" stroke="none" fill="#f18800"/>
      </g>
      <path id="Path_52" data-name="Path 52" d="M395.1,844.6l22.785,26.418" fill="none" stroke="#f18800" stroke-width="0.5"/>
      <path id="Path_55" data-name="Path 55" d="M395.567,845.219l22.314,25.8" transform="translate(-9 8)" fill="none" stroke="#f18800" stroke-width="0.5"/>
      <path id="Path_56" data-name="Path 56" d="M395.567,845.219l22.473,26.044" transform="translate(-8 6)" fill="none" stroke="#f18800" stroke-width="0.5"/>
      <path id="Path_57" data-name="Path 57" d="M395.567,845.219l22.926,26.94" transform="translate(-7 4)" fill="none" stroke="#f18800" stroke-width="0.5"/>
      <path id="Path_58" data-name="Path 58" d="M396.023,846.2l22.47,25.962" transform="translate(1 -2)" fill="none" stroke="#f18800" stroke-width="0.5"/>
      <path id="Path_53" data-name="Path 53" d="M395.1,844.6l22.939,26.7" transform="translate(-2 1)" fill="none" stroke="#f18800" stroke-width="0.5"/>
      <path id="Path_54" data-name="Path 54" d="M394.542,844.008l23.339,27.013" transform="translate(-3 3)" fill="none" stroke="#f18800" stroke-width="0.5"/>
      <path id="Path_59" data-name="Path 59" d="M394.542,844.008l23.339,27.013" transform="translate(-5 4)" fill="none" stroke="#f18800" stroke-width="0.5"/>
    </g>
    <g id="Group_4" data-name="Group 4" transform="translate(1 1)">
      <path id="Path_47-2" data-name="Path 47" d="M399.707,904.039c-.86-.942-12.157-1.267-12.9,0s-.415,10.5,0,10.939,12.461.451,12.9,0S400.567,904.981,399.707,904.039Z" fill="none" stroke="#f18800" stroke-width="1"/>
      <path id="Path_48-2" data-name="Path 48" d="M386.91,904.109s3.353,6.086,6.568,6.086,6.293-6.086,6.293-6.086" fill="none" stroke="#f18800" stroke-width="1"/>
      <g id="Ellipse_4-2" data-name="Ellipse 4" transform="translate(392 906)" fill="#fff" stroke="#fff" stroke-width="1">
        <circle cx="1" cy="1" r="1" stroke="none"/>
        <circle cx="1" cy="1" r="0.5" fill="none"/>
      </g>
      <path id="Path_49-2" data-name="Path 49" d="M375.1,878l42.515-1.4" fill="none" stroke="#f18800" stroke-width="1"/>
      <path id="Path_60-2" data-name="Path 60" d="M471.914,1240.133l10.98,14.172,57.064,2.324s2.74,2.588,5.756,2.588a5.449,5.449,0,0,0,5.107-2.99,2.479,2.479,0,0,0-1.892-2.964c-1.444-.28-4.917.35-4.763,0s4.245-2.6,3.194-2.6-7.4,2.6-7.4,2.6L494.384,1240.9l-6.767-5.618H474.212" transform="translate(-70 -368)" fill="#ff807a"/>
      <path id="Path_50-2" data-name="Path 50" d="M393.427,835.076l1.67,41.837" fill="none" stroke="#f18800" stroke-width="1"/>
      <g id="Path_51-2" data-name="Path 51" transform="translate(385.99 855.371) rotate(-40)" fill="#fda803">
        <path d="M 17.41973304748535 32.5 L 0.6186191439628601 32.5 C 0.4895876944065094 30.78797721862793 0.03882662951946259 24.55830383300781 -0.2024151235818863 18.02916145324707 C -0.6950751543045044 4.695400714874268 0.08448487520217896 1.161630630493164 0.5930248498916626 0.2419506758451462 C 1.113534927368164 -0.6993693113327026 2.291814804077148 -1.556249380111694 3.910824775695801 -2.170829296112061 C 5.522814750671387 -2.782759428024292 7.467235088348389 -3.119759321212769 9.38591480255127 -3.119759321212769 C 11.14849472045898 -3.119759321212769 12.80080509185791 -2.836369276046753 14.16422462463379 -2.30022931098938 C 15.66016483306885 -1.711989283561707 16.76149559020996 -0.8505993485450745 17.43762397766113 0.2600006759166718 C 18.35041427612305 1.759350657463074 19.29560470581055 6.14430046081543 18.61487579345703 18.5195198059082 C 18.2637882232666 24.90217018127441 17.60763168334961 30.86398315429688 17.41973304748535 32.5 Z" stroke="none"/>
        <path d="M 9.38591480255127 -2.619758605957031 C 5.600984573364258 -2.619758605957031 2.008974075317383 -1.285469055175781 1.030584335327148 0.4839000701904297 C 0.6414356231689453 1.187681198120117 -0.2090549468994141 4.304050445556641 0.2971343994140625 18.0077018737793 C 0.5198745727539063 24.0375919342041 0.9216461181640625 29.81272125244141 1.082763671875 32 L 16.97324562072754 32 C 17.20770835876465 29.90893936157227 17.79209136962891 24.37668991088867 18.11590576171875 18.48719024658203 C 18.82456398010254 5.598060607910156 17.7275447845459 1.697750091552734 17.01054382324219 0.5200099945068359 C 16.39248466491699 -0.4952201843261719 15.3732852935791 -1.287528991699219 13.98125457763672 -1.834918975830078 C 12.67553520202637 -2.348369598388672 11.08649444580078 -2.619758605957031 9.38591480255127 -2.619758605957031 M 9.38591480255127 -3.619754791259766 C 12.86245155334473 -3.619754791259766 16.31322288513184 -2.548456192016602 17.86470413208008 0 C 21.19577407836914 5.471620559692383 17.86470413208008 33 17.86470413208008 33 L 0.1554641723632813 33 C 0.1554641723632813 33 -2.131004333496094 4.135009765625 0.1554641723632813 0 C 1.376989364624023 -2.209089279174805 5.39821720123291 -3.619754791259766 9.38591480255127 -3.619754791259766 Z" stroke="none" fill="#f18800"/>
      </g>
      <path id="Path_52-2" data-name="Path 52" d="M395.1,844.6l22.785,26.418" fill="none" stroke="#f18800" stroke-width="0.5"/>
      <path id="Path_55-2" data-name="Path 55" d="M395.567,845.219l22.314,25.8" transform="translate(-9 8)" fill="none" stroke="#f18800" stroke-width="0.5"/>
      <path id="Path_56-2" data-name="Path 56" d="M395.567,845.219l22.473,26.044" transform="translate(-8 6)" fill="none" stroke="#f18800" stroke-width="0.5"/>
      <path id="Path_57-2" data-name="Path 57" d="M395.567,845.219l22.926,26.94" transform="translate(-7 4)" fill="none" stroke="#f18800" stroke-width="0.5"/>
      <path id="Path_58-2" data-name="Path 58" d="M396.023,846.2l22.47,25.962" transform="translate(1 -2)" fill="none" stroke="#f18800" stroke-width="0.5"/>
      <path id="Path_53-2" data-name="Path 53" d="M395.1,844.6l22.939,26.7" transform="translate(-2 1)" fill="none" stroke="#f18800" stroke-width="0.5"/>
      <path id="Path_54-2" data-name="Path 54" d="M394.542,844.008l23.339,27.013" transform="translate(-3 3)" fill="none" stroke="#f18800" stroke-width="0.5"/>
      <path id="Path_59-2" data-name="Path 59" d="M394.542,844.008l23.339,27.013" transform="translate(-5 4)" fill="none" stroke="#f18800" stroke-width="0.5"/>
    </g>
    <path id="Path_62" data-name="Path 62" d="M471.019,892.844l20.8,1.833,9.556-19.937-16.768-.883Z" transform="translate(-1 1)" fill="#707070" stroke="#707070" stroke-width="1"/>
    <path id="Path_65" data-name="Path 65" d="M483.783,875.74l-10.017,16.3,15.714,2.652,7.955-17.481Z" fill="none" stroke="#888585" stroke-width="0.5"/>
    <path id="Path_63" data-name="Path 63" d="M474.2,885.175s4.457-2.134,4.457-1.586-4.457,3.777-4.457,3.777-2.417.982-2.644.982" fill="#ff807a"/>
    <path id="Path_64" data-name="Path 64" d="M474.2,885.175s4.457-2.134,4.457-1.586-4.457,3.777-4.457,3.777-2.417.982-2.644.982" transform="translate(4 -6)" fill="#ff6f68"/>
    <path id="Path_66" data-name="Path 66" d="M494.782,877.5l-2.062,5.607" transform="translate(0 1)" fill="none" stroke="#fff" stroke-linecap="round" stroke-width="1" opacity="0.17"/>
    <path id="Path_67" data-name="Path 67" d="M494.782,877.5l-2.062,5.607" transform="translate(-3 2)" fill="none" stroke="#fff" stroke-linecap="round" stroke-width="1" opacity="0.17"/>
    <path id="Path_68" data-name="Path 68" d="M494.782,877.5l-2.062,5.607" transform="translate(-5)" fill="none" stroke="#fff" stroke-linecap="round" stroke-width="1" opacity="0.17"/>
    <circle id="Ellipse_5" data-name="Ellipse 5" cx="5" cy="5" r="5" transform="translate(384 771)" fill="#474040"/>
    <path id="Path_75" data-name="Path 75" d="M4.426,7.875a15.864,15.864,0,0,1,7.705-5.657C17.525.25,26,0,26,0L21.86,16.4a15.918,15.918,0,0,1-10.553.585C5.914,15.208,4.426,7.875,4.426,7.875Z" transform="translate(373.811 815.391) rotate(-49)" fill="#481919"/>
    <path id="Path_76" data-name="Path 76" d="M4.426,7.875a15.864,15.864,0,0,1,7.705-5.657c5.393-1.969,8.624-.05,8.624-.05l2.511,14.4s-6.566,2.2-11.959.421S4.426,7.875,4.426,7.875Z" transform="translate(398.811 793.391) rotate(-49)" fill="#481919"/>
    <path id="Path_71" data-name="Path 71" d="M11.919-.094c9.6-5.976,27.507-2.742,25.811,3.8s-20,33.741-26.968,33.959S-.593,22.764-.269,18.013,2.323,5.882,11.919-.094Z" transform="matrix(0.951, 0.309, -0.309, 0.951, 388.159, 769.035)" fill="#e36a00"/>
    <circle id="Ellipse_6" data-name="Ellipse 6" cx="4.5" cy="4.5" r="4.5" transform="translate(398 796)" fill="#f9aa8c"/>
    <circle id="Ellipse_7" data-name="Ellipse 7" cx="3.5" cy="3.5" r="3.5" transform="translate(401 797)" fill="#ff9392"/>
  </g>
</svg>
