<svg xmlns="http://www.w3.org/2000/svg" xmlns:xlink="http://www.w3.org/1999/xlink" width="99" height="101" viewBox="0 0 99 101">
  <defs>
    <clipPath id="clip-MOZAYEDE">
      <rect width="99" height="101"/>
    </clipPath>
  </defs>
  <g id="MOZAYEDE" clip-path="url(#clip-MOZAYEDE)">
    <path id="Path_1" data-name="Path 1" d="M2476.987-750.244h25.99v9.979H2461.9v-9.979h6.962" transform="translate(-2450 826)" fill="none" stroke="#fff" stroke-linecap="round" stroke-linejoin="round" stroke-width="3"/>
    <g id="Path_2" data-name="Path 2" transform="translate(3 85.735)" fill="none">
      <path d="M6,0H54a5.825,5.825,0,0,1,6,5.633c0,3.111.742,5.633-2.572,5.633H2.714C-.6,11.265,0,8.743,0,5.633A5.825,5.825,0,0,1,6,0Z" stroke="none"/>
      <path d="M 6 1.999997138977051 C 3.794391632080078 1.999997138977051 2 3.629537105560303 2 5.63250732421875 C 2 6.089097499847412 1.988239288330078 6.519747257232666 1.976871490478516 6.936227321624756 C 1.959602355957031 7.568817138671875 1.943290710449219 8.166327476501465 1.979412078857422 8.630807876586914 C 2.004657745361328 8.95539379119873 2.048702239990234 9.120915412902832 2.074657440185547 9.194197654724121 C 2.155521392822266 9.220513343811035 2.346652984619141 9.265017509460449 2.714351654052734 9.265017509460449 L 57.42845916748047 9.265017509460449 C 57.73117828369141 9.265017509460449 57.90901947021484 9.234623908996582 58.0008659362793 9.211324691772461 C 58.10593032836914 8.830106735229492 58.0665168762207 7.843031406402588 58.03969192504883 7.171157360076904 C 58.02017974853516 6.682377338409424 58 6.176947116851807 58 5.63250732421875 C 58 3.629537105560303 56.20561218261719 1.999997138977051 54 1.999997138977051 L 6 1.999997138977051 M 6 -2.86102294921875e-06 L 54 -2.86102294921875e-06 C 57.31371307373047 -2.86102294921875e-06 60 2.521757125854492 60 5.63250732421875 C 60 8.743257522583008 60.74217224121094 11.26501750946045 57.42845916748047 11.26501750946045 L 2.714351654052734 11.26501750946045 C -0.5993576049804688 11.26501750946045 0 8.743257522583008 0 5.63250732421875 C 0 2.521757125854492 2.686290740966797 -2.86102294921875e-06 6 -2.86102294921875e-06 Z" stroke="none" fill="#fff"/>
    </g>
    <path id="Path_3" data-name="Path 3" d="M2511.143-774.286l11.286,11.714-6.143,5.857-21.428-21.714,5.857-6.143,4.143,4.143" transform="translate(-2450 826)" fill="none" stroke="#fff" stroke-linecap="round" stroke-linejoin="round" stroke-width="3"/>
    <g id="Path_4" data-name="Path 4" transform="translate(63.115 72.136) rotate(-45)" fill="none">
      <path d="M6,0h5c3.314,0,5.884-.36,5.884,2.954L17,27c0,3.314-.539,6.36-3.853,6.36h-9.9C-.066,33.36,0,30.314,0,27L.318,3.156C.318-.158,2.686,0,6,0Z" stroke="none"/>
      <path d="M 12.69206619262695 2.988548278808594 L 12.69207763671875 2.988548278808594 C 12.44755077362061 2.988550186157227 12.19136047363281 2.99114990234375 11.92014694213867 2.993898391723633 C 11.62431621551514 2.996898651123047 11.31840705871582 2.999998092651367 10.99999618530273 2.999998092651367 L 5.999996185302734 2.999998092651367 C 5.851986885070801 2.999998092651367 5.705856323242188 2.999689102172852 5.56170654296875 2.9993896484375 C 5.425606727600098 2.999099731445313 5.291316032409668 2.998809814453125 5.158956527709961 2.998809814453125 C 4.766448020935059 2.998809814453125 3.866585731506348 2.998815536499023 3.318948745727539 3.069856643676758 C 3.318304061889648 3.096864700317383 3.317946434020996 3.125598907470703 3.317946434020996 3.156129837036133 L 3.317946434020996 3.176128387451172 L 3.317676544189453 3.196128845214844 L 2.999991416931152 27.02014350891113 L 2.999946594238281 27.19266891479492 C 2.999606132507324 28.08064842224121 2.999276161193848 28.91938781738281 3.066646575927734 29.60322952270508 C 3.103019714355469 29.97242736816406 3.151749610900879 30.21146965026855 3.191802978515625 30.35893058776855 C 3.209147453308105 30.35936737060547 3.22763729095459 30.35960960388184 3.247326850891113 30.35960960388184 L 13.14681625366211 30.35960960388184 C 13.34255313873291 30.35960960388184 13.4570140838623 30.33506011962891 13.50079917907715 30.32045364379883 C 13.53827953338623 30.27243995666504 13.68051719665527 30.06155586242676 13.80225658416748 29.50099945068359 C 13.93499183654785 28.88981437683105 13.99967956542969 28.07429504394531 13.99999523162842 27.00789642333984 L 13.88470554351807 3.030641555786133 C 13.63519954681396 3.006799697875977 13.25904083251953 2.988544464111328 12.69206619262695 2.988548278808594 M 12.69204330444336 -0.01144790649414063 C 15.14924049377441 -0.01147079467773438 16.88437652587891 0.2312507629394531 16.88437652587891 2.9539794921875 L 16.99999618530273 27 C 16.99999618530273 30.3137092590332 16.46052551269531 33.3596076965332 13.14681625366211 33.3596076965332 L 3.247326850891113 33.3596076965332 C -0.06638336181640625 33.3596076965332 -3.814697265625e-06 30.3137092590332 -3.814697265625e-06 27 L 0.3179454803466797 3.156129837036133 C 0.3179454803466797 0.1302261352539063 2.292804718017578 -0.001190185546875 5.158952713012695 -0.001190185546875 C 5.431563377380371 -0.001190185546875 5.712190628051758 0 5.999996185302734 0 L 10.99999618530273 0 C 11.59097862243652 0 12.15869617462158 -0.011444091796875 12.69204330444336 -0.01144790649414063 Z" stroke="none" fill="#fff"/>
    </g>
    <g id="Rectangle_4" data-name="Rectangle 4" transform="translate(42.593 14.548) rotate(45)" fill="none" stroke="#fff" stroke-width="3">
      <rect width="26" height="35" stroke="none"/>
      <rect x="1.5" y="1.5" width="23" height="32" fill="none"/>
    </g>
    <g id="Rectangle_5" data-name="Rectangle 5" transform="matrix(0.719, -0.695, 0.695, 0.719, 38.454, 11.897)" fill="none" stroke="#fff" stroke-width="3">
      <rect width="10" height="34" stroke="none"/>
      <rect x="1.5" y="1.5" width="7" height="31" fill="none"/>
    </g>
    <g id="Rectangle_6" data-name="Rectangle 6" transform="matrix(0.719, -0.695, 0.695, 0.719, 8.454, 40.897)" fill="none" stroke="#fff" stroke-width="3">
      <rect width="10" height="34" stroke="none"/>
      <rect x="1.5" y="1.5" width="7" height="31" fill="none"/>
    </g>
  </g>
</svg>
