<svg xmlns="http://www.w3.org/2000/svg" width="190.603" height="181.869" viewBox="0 0 190.603 181.869">
  <g id="MOZAYEDE" transform="translate(-716.944 874.887)">
    <path id="Path_1" data-name="Path 1" d="M821.349-797.076l-8.34-8.34-12.024,12.024,43.2,43.2,12.4-12.4-23.674-23.674" fill="none" stroke="#fff" stroke-linecap="round" stroke-linejoin="round" stroke-width="4"/>
    <path id="Path_2" data-name="Path 2" d="M856.5-762.361c.551-.689,3.587-3.333,3.587-3.333l44.623,44.133L885.352-702.2l-44.461-44.461,15.609-15.7Z" fill="none" stroke="#fff" stroke-linecap="round" stroke-linejoin="round" stroke-width="4"/>
    <g id="Path_3" data-name="Path 3" transform="translate(717 -718)" fill="none" stroke-linecap="round">
      <path d="M10.5,0h99A10.5,10.5,0,0,1,120,10.5c0,5.8,1.682,14.326-4.117,14.326L4.862,24.982C-.937,24.982,0,16.3,0,10.5A10.5,10.5,0,0,1,10.5,0Z" stroke="none"/>
      <path d="M 10.49999237060547 3.999996185302734 C 6.915870666503906 3.999996185302734 3.999992370605469 6.915874481201172 3.999992370605469 10.49999523162842 C 3.999992370605469 11.2237548828125 3.9866943359375 11.95899486541748 3.972618103027344 12.73739528656006 C 3.936477661132813 14.73389530181885 3.899131774902344 16.79835510253906 4.099113464355469 18.53011512756348 C 4.287826538085938 20.16408920288086 4.615066528320313 20.79283905029297 4.736175537109375 20.97654342651367 C 4.766868591308594 20.97938919067383 4.807273864746094 20.98165702819824 4.856193542480469 20.98175430297852 L 115.8505172729492 20.82565307617188 C 115.9526748657227 20.55938529968262 116.1095504760742 19.98973083496094 116.1832733154297 18.8925952911377 C 116.2797775268555 17.45657539367676 116.1957550048828 15.70971488952637 116.1145172119141 14.02037525177002 C 116.0582122802734 12.84967517852783 115.9999923706055 11.63913536071777 115.9999923706055 10.49999523162842 C 115.9999923706055 6.915874481201172 113.084114074707 3.999996185302734 109.4999923706055 3.999996185302734 L 10.49999237060547 3.999996185302734 M 10.49999237060547 -3.814697265625e-06 L 109.4999923706055 -3.814697265625e-06 C 115.2989959716797 -3.814697265625e-06 119.9999923706055 4.701015472412109 119.9999923706055 10.49999523162842 C 119.9999923706055 16.29899597167969 121.6817932128906 24.82561492919922 115.8828125 24.82561492919922 L 4.86181640625 24.98175430297852 C -0.937164306640625 24.98175430297852 -7.62939453125e-06 16.29899597167969 -7.62939453125e-06 10.49999523162842 C -7.62939453125e-06 4.701015472412109 4.701011657714844 -3.814697265625e-06 10.49999237060547 -3.814697265625e-06 Z" stroke="none" fill="#fff"/>
    </g>
    <path id="Path_4" data-name="Path 4" d="M764.958-737.046H818.9v20.506" fill="none" stroke="#fff" stroke-linecap="round" stroke-linejoin="round" stroke-width="4"/>
    <path id="Path_5" data-name="Path 5" d="M749.116-737.046H736.1v20.369" fill="none" stroke="#fff" stroke-linecap="round" stroke-linejoin="round" stroke-width="4"/>
    <g id="Rectangle_1" data-name="Rectangle 1" transform="translate(732.076 -804.866) rotate(-45)" fill="none" stroke="#fff" stroke-width="4">
      <rect width="17" height="66" rx="4" stroke="none"/>
      <rect x="2" y="2" width="13" height="62" rx="2" fill="none"/>
    </g>
    <g id="Rectangle_2" data-name="Rectangle 2" transform="translate(789.076 -862.866) rotate(-45)" fill="none" stroke="#fff" stroke-width="4">
      <rect width="17" height="66" rx="4" stroke="none"/>
      <rect x="2" y="2" width="13" height="62" rx="2" fill="none"/>
    </g>
    <g id="Rectangle_3" data-name="Rectangle 3" transform="translate(796.745 -858.715) rotate(45)" fill="none" stroke="#fff" stroke-width="4">
      <rect width="51" height="70" rx="4" stroke="none"/>
      <rect x="2" y="2" width="47" height="66" rx="2" fill="none"/>
    </g>
  </g>
</svg>
