<svg xmlns="http://www.w3.org/2000/svg" xmlns:xlink="http://www.w3.org/1999/xlink" width="649" height="613" viewBox="0 0 649 613">
  <defs>
    <clipPath id="clip-Artboard_1">
      <rect width="649" height="613"/>
    </clipPath>
  </defs>
  <g id="Artboard_1" data-name="Artboard – 1" clip-path="url(#clip-Artboard_1)">
    <g id="adam" transform="translate(-626.834 -1749.29)">
      <g id="pa" transform="translate(203.314 1865)">
        <path id="Path_21" data-name="Path 21" d="M541.327,378.426l-9.246,7.157-10.135-9.6,8.179-6.808Z" transform="translate(0.337)" fill="#f76262"/>
        <path id="Path_22" data-name="Path 22" d="M22.77,9.415,5.738,23.486,0,8.118,14.262,0Z" transform="translate(678.658 410.74) rotate(-72)" fill="#f76262"/>
        <path id="Path_16" data-name="Path 16" d="M625.931,241.782s2.137,20.965-17.842,55.417-60.965,84.086-60.965,84.086l-18.649-14.614s38.212-81.883,40.282-85.243,2.694-28.077,2.344-31.226-2.344-102.55-2.344-102.55" fill="#4a47a3"/>
        <path id="Path_17" data-name="Path 17" d="M571.146,185.708c-.285,3.237,47.708,67.532,47.708,67.532l2.248-12.416S571.431,182.472,571.146,185.708Z" transform="translate(6.227)" fill="#373488"/>
        <path id="Path_15" data-name="Path 15" d="M690.5,390.974s12.639-129.339,10.556-137.241-60.7-102.294-60.7-102.294L571,127.413s-9.9,25.587-2.732,47.066,26.168,39.635,26.168,39.635,32.331,34.524,38.449,40.582c21.929,21.712,14.34,13.961,16.056,16.128.924,5.608,20.825,129.98,20.825,129.98Z" transform="translate(3.028 -1)" fill="#4a47a3" stroke="#4a47a3" stroke-linecap="round" stroke-linejoin="round" stroke-width="1"/>
        <path id="Path_18" data-name="Path 18" d="M544.963,379.591s26.426-30.249,47.62-63.159c10.788-16.751,19.894-35.026,24.411-49.485,4.175-13.365,3.951-23.219,3.951-23.219" transform="translate(4.379)" fill="none" stroke="#373488" stroke-width="3"/>
        <path id="Path_65" data-name="Path 65" d="M895.869,2252.59c0-4.439-2.536-4.915-2.536-4.915" transform="translate(-203.314 -1865)" fill="none" stroke="#373488" stroke-linecap="round" stroke-width="1"/>
        <path id="Path_66" data-name="Path 66" d="M0,5.2C0,.5,1.91,0,1.91,0" transform="translate(692.04 388.974) rotate(151.001)" fill="none" stroke="#373488" stroke-linecap="round" stroke-width="1"/>
        <path id="Path_67" data-name="Path 67" d="M538.51,373.325s3.372.079,5.024-.951a3.852,3.852,0,0,0,1.585-3.171" fill="none" stroke="#373488" stroke-linecap="round" stroke-width="1"/>
        <path id="Path_68" data-name="Path 68" d="M538.51,369.2s3.372-.079,5.024.951S546.8,374.1,546.8,374.1" transform="translate(-23.646 703.413) rotate(-65)" fill="none" stroke="#373488" stroke-linecap="round" stroke-width="1"/>
        <path id="Path_31" data-name="Path 31" d="M666.515,394.8,646.48,269.361l-25.487-24.877s-42.925-42.925-52.6-61.316" transform="translate(6.16 -1)" fill="none" stroke="#373488" stroke-linecap="round" stroke-linejoin="round" stroke-width="4"/>
        <path id="Path_19" data-name="Path 19" d="M528.739,365.2l-2.318,3.964,22.439,16.422,4.675-4.53Z" fill="#121058"/>
        <path id="Path_20" data-name="Path 20" d="M4.6,0,0,8.184,23.948,19.453l4.823-4.047Z" transform="matrix(0.643, -0.766, 0.766, 0.643, 667.416, 397.715)" fill="#121058"/>
        <path id="Path_23" data-name="Path 23" d="M523.769,370.168s-16.57,2.32-17.233,10.439,20.049,32.518,30.323,42.584,11.267-.5,10.77-2.32-7.788-37.282-6.462-38.276-8.741,3.107-13.09,0S523.769,370.168,523.769,370.168Z" transform="translate(0 -1)" fill="#0b4638"/>
        <path id="Path_24" data-name="Path 24" d="M17.248,0S.678,2.32.016,10.439,20.065,42.957,30.338,53.023s11.267-.5,10.77-2.32S33.32,13.421,34.646,12.427s-8.741,3.107-13.09,0S17.248,0,17.248,0Z" transform="translate(681.286 429.693) rotate(-81)" fill="#0b4638"/>
        <path id="Path_25" data-name="Path 25" d="M693.674,396.105v3.726" transform="translate(14.686 2)" fill="none" stroke="#fff" stroke-width="2"/>
        <path id="Path_26" data-name="Path 26" d="M700.733,396.105v3.628" transform="translate(14.686 2)" fill="none" stroke="#fff" stroke-width="2"/>
        <path id="Path_27" data-name="Path 27" d="M541.664,390.321c.2.048-3.882.49-3.882.49S541.464,390.272,541.664,390.321Z" fill="none" stroke="#fff" stroke-width="2"/>
        <path id="Path_28" data-name="Path 28" d="M542.55,394.145l-4.04.687" fill="none" stroke="#fff" stroke-width="2"/>
        <path id="Path_29" data-name="Path 29" d="M7.383.643C10.228,3.17-3.574,8.393.9,10.643s8.713-3.078,2.9-5S4.538-1.884,7.383.643Z" transform="translate(545.858 383.538) rotate(73)" fill="none" stroke="#c4c4c4" stroke-width="2"/>
        <path id="Path_30" data-name="Path 30" d="M7.383.643C10.228,3.17-3.574,8.393.9,10.643s8.713-3.078,2.9-5S4.538-1.884,7.383.643Z" transform="translate(701.946 392.978) rotate(5)" fill="none" stroke="#c4c4c4" stroke-width="2"/>
      </g>
      <g id="Group_3" data-name="Group 3" transform="matrix(0.656, 0.755, -0.755, 0.656, 1779.382, 39.448)">
        <path id="Path_3" data-name="Path 3" d="M711.449,1152.57H294.489" transform="translate(-81.669 1775.724) rotate(-49)" fill="none" stroke="#707070" stroke-linecap="round" stroke-width="8" opacity="0.61"/>
        <path id="Path_4" data-name="Path 4" d="M711.449,1152.57H294.489" transform="translate(31.62 1683.489) rotate(-49)" fill="none" stroke="#707070" stroke-linecap="round" stroke-width="8" opacity="0.61"/>
        <ellipse id="Ellipse_17" data-name="Ellipse 17" cx="7.5" cy="7" rx="7.5" ry="7" transform="translate(812 1957)" fill="#f6948d"/>
        <ellipse id="Ellipse_18" data-name="Ellipse 18" cx="7.5" cy="7" rx="7.5" ry="7" transform="translate(819 1959)" fill="#f6948d"/>
        <ellipse id="Ellipse_19" data-name="Ellipse 19" cx="11.5" cy="8.5" rx="11.5" ry="8.5" transform="translate(899.156 1934.763) rotate(-18)" fill="#f6948d"/>
        <path id="Path_86" data-name="Path 86" d="M2.645.951c2.171,3.183,2.5,2.015,2.5,4.5s-1.119,4.5-2.5,4.5S0,8.36,0,5.875.474-2.232,2.645.951Z" transform="matrix(0.914, 0.407, -0.407, 0.914, 903.321, 1930.37)" fill="#f6948d"/>
        <path id="Path_85" data-name="Path 85" d="M0,0H26.221L13.849,94.66l-9.587.84Z" transform="translate(816.755 1970.768) rotate(-103.008)" fill="#f6948d"/>
      </g>
      <rect id="Rectangle_6" data-name="Rectangle 6" width="21" height="34" transform="translate(803 1846)" fill="#f6948d"/>
      <path id="Path_69" data-name="Path 69" d="M36,9.347C44.62,1.394,50.785.807,50.785.807s7.23,15.678,15.167,15.933S82.4,1.726,82.4,1.726l8.59,10.332S97.77,19.17,99.956,25.13,114,41.89,113.741,85.586c-.227,38.867-11.976,79.928-16.349,81.761-9.226,3.866-66.647,2.508-66.647,2.508S16.79,130.3,14.951,85.586,27.388,17.3,36,9.347Z" transform="translate(748 1857.925)" fill="#65c9d8" stroke="#65c9d8" stroke-linecap="round" stroke-linejoin="round" stroke-width="2"/>
      <path id="Path_71" data-name="Path 71" d="M835.945,2034.45Z" fill="none" stroke="#328d9b" stroke-width="1"/>
      <path id="Path_73" data-name="Path 73" d="M841.167,2016.23a22.144,22.144,0,0,1-.759-8.077,21.221,21.221,0,0,1,2.811-7.5" transform="translate(406.694 -125.713) rotate(11)" fill="none" stroke="#fff" stroke-linecap="round" stroke-linejoin="round" stroke-width="1"/>
      <path id="Path_74" data-name="Path 74" d="M.881,0A22.143,22.143,0,0,0,.122,8.077a21.222,21.222,0,0,0,2.811,7.5" transform="translate(846.81 2020.296) rotate(-177)" fill="none" stroke="#fff" stroke-linecap="round" stroke-linejoin="round" stroke-width="1"/>
      <path id="Path_78" data-name="Path 78" d="M771.8,2014.57s-11.694-46.235-9.043-83.848c1.638-23.245-.38-34.513,10.225-52.448s25.183-19.824,25.183-19.824" fill="none" stroke="#328d9b" stroke-linecap="round" stroke-linejoin="round" stroke-width="3"/>
      <path id="Path_79" data-name="Path 79" d="M775.457,2015.03s-10.047-28.059-13.063-46.153a215.289,215.289,0,0,1-3.016-31.88" transform="translate(398.141 -109.125) rotate(11)" fill="none" stroke="#fff" stroke-linecap="round" stroke-linejoin="round" stroke-width="1"/>
      <path id="Path_82" data-name="Path 82" d="M779.409,2017.92a189.16,189.16,0,0,1-7.265-20.393,90.219,90.219,0,0,1-2.677-16.7" transform="translate(584.102 -136.012) rotate(16)" fill="none" stroke="#fff" stroke-width="0.5"/>
      <g id="Rectangle_4" data-name="Rectangle 4" transform="translate(773 2019)" fill="#4a47a3" stroke="#4a47a3" stroke-width="1">
        <rect width="75" height="19" stroke="none"/>
        <rect x="0.5" y="0.5" width="74" height="18" fill="none"/>
      </g>
      <path id="Path_87" data-name="Path 87" d="M856.484,1897.89s4.681,17.481,5.468,29.494,0,18.392,0,18.392" transform="translate(-1)" fill="none" stroke="#fff" stroke-width="1"/>
      <g id="Group_2" data-name="Group 2" transform="translate(3 5)">
        <path id="Path_84" data-name="Path 84" d="M0,0,33.028-3.013,20.5,69.278,2.522,72.156Z" transform="translate(778.942 1917.711) rotate(-26)" fill="#f6948d"/>
        <ellipse id="Ellipse_17-2" data-name="Ellipse 17" cx="7.5" cy="7" rx="7.5" ry="7" transform="translate(803 1968.319)" fill="#f6948d"/>
        <ellipse id="Ellipse_18-2" data-name="Ellipse 18" cx="7.5" cy="7" rx="7.5" ry="7" transform="translate(807 1975.319)" fill="#f6948d"/>
        <ellipse id="Ellipse_19-2" data-name="Ellipse 19" cx="11.5" cy="8.5" rx="11.5" ry="8.5" transform="translate(901.206 2006.632) rotate(13)" fill="#f6948d"/>
        <path id="Path_86-2" data-name="Path 86" d="M2.5,0C4.671,3.183,5,2.015,5,4.5S3.881,9,2.5,9-.145,7.409-.145,4.924.329-3.183,2.5,0Z" transform="matrix(0.574, 0.82, -0.82, 0.574, 906.417, 2005.552)" fill="#f6948d"/>
        <path id="Path_85-2" data-name="Path 85" d="M0,0H26.221L13.849,94.66l-9.587.84Z" transform="translate(812.157 1985.187) rotate(-66)" fill="#f6948d"/>
      </g>
      <rect id="Rectangle_5" data-name="Rectangle 5" width="85" height="11" rx="2" transform="translate(769 2014)" fill="#2e2b80"/>
      <path id="Path_72" data-name="Path 72" d="M1.922,2.625c1.1,0-1.46-1.837-1.46-.732S2.886,3.484,1.781,3.484s1.6-.351,1.6-1.455S.817,2.625,1.922,2.625Z" transform="translate(849 2017)" fill="#fff"/>
      <path id="Path_80" data-name="Path 80" d="M814.442,1918.39l-36.617,12.13-.868-.107-1.317-5.406a40.81,40.81,0,0,0-3.4-14.387,43.345,43.345,0,0,0-9.507-13.633l38.374-17.121Z" transform="translate(-222.442 110.21) rotate(-7)" fill="#328d9b" stroke="#328d9b" stroke-linecap="round" stroke-linejoin="round" stroke-width="3"/>
      <path id="Path_81" data-name="Path 81" d="M816.712,1923.12l-38.3,12.513-4.4,1.634-13.246-34.873,41.788-22.522Z" transform="translate(-220.594 102.62) rotate(-7)" fill="#65c9d8"/>
      <path id="Path_83" data-name="Path 83" d="M766.417,1898.367c2.9,6.765,4.41,8.967,8.4,15.153a78.425,78.425,0,0,1,8.785,17.9l37.206-17.9" fill="none" stroke="#fff" stroke-linecap="round" stroke-linejoin="round" stroke-width="0.5"/>
      <path id="Path_89" data-name="Path 89" d="M798.774,1858.74s6.957,16.421,15.05,16.665,16.422-15.639,16.422-15.639" fill="none" stroke="#fff" stroke-linecap="round" stroke-width="2"/>
      <path id="Path_88" data-name="Path 88" d="M798.774,1858.74s6.957,15.69,15.05,15.923,16.422-14.943,16.422-14.943" fill="none" stroke="#328d9b" stroke-linecap="round" stroke-width="2"/>
      <g id="Group_4" data-name="Group 4" transform="translate(278.683 1204.077) rotate(9)">
        <ellipse id="Ellipse_20" data-name="Ellipse 20" cx="5.5" cy="6.5" rx="5.5" ry="6.5" transform="translate(653 516)" fill="#f9b38f" opacity="0.8"/>
        <path id="Path_90" data-name="Path 90" d="M5.334,0c2.946,0,5.334,2.87,5.334,6.411S8.28,12.822,5.334,12.822,0,9.952,0,6.411,2.388,0,5.334,0Z" transform="translate(652 516.177)" fill="#f98f8f" opacity="0.8"/>
        <path id="Path_94" data-name="Path 94" d="M33.2,0C51.533,0,61.931,11.608,67.382,33.532S61.644,77.888,33.2,75.594,0,60.539,0,39,14.863,0,33.2,0Z" transform="translate(588.345 483)" fill="#f6948d"/>
        <path id="Path_95" data-name="Path 95" d="M34.5,0C53.554,0,59.149,44.2,59.149,44.2L55.964,81.671s-18.59,7.139-33.258-4.8S0,57.312,0,42C0,18.8,15.446,0,34.5,0Z" transform="matrix(0.934, 0.358, -0.358, 0.934, 596.362, 462.29)" fill="#4f3a65"/>
        <ellipse id="Ellipse_25" data-name="Ellipse 25" cx="6" cy="6.5" rx="6" ry="6.5" transform="translate(637.121 477.621) rotate(30)" fill="#4f3a65"/>
        <ellipse id="Ellipse_27" data-name="Ellipse 27" cx="6" cy="6.5" rx="6" ry="6.5" transform="translate(597.121 474.621) rotate(30)" fill="#4f3a65"/>
        <ellipse id="Ellipse_29" data-name="Ellipse 29" cx="6" cy="6.5" rx="6" ry="6.5" transform="translate(585.121 487.621) rotate(30)" fill="#4f3a65"/>
        <ellipse id="Ellipse_28" data-name="Ellipse 28" cx="6" cy="6.5" rx="6" ry="6.5" transform="translate(591.121 480.621) rotate(30)" fill="#4f3a65"/>
        <path id="Path_91" data-name="Path 91" d="M630.211,477.892S619.3,482.26,617.641,490.7s4.5,14.388,3.713,23.439-6.846,12.764-6.846,12.764" transform="translate(77.988 -80.658) rotate(8)" fill="none" stroke="#fff" stroke-linecap="round" stroke-width="2" opacity="0.12"/>
        <path id="Path_92" data-name="Path 92" d="M630.211,477.892S619.3,482.26,617.641,490.7s4.5,14.388,3.713,23.439-6.846,12.764-6.846,12.764" transform="translate(182.721 -169.662) rotate(18)" fill="none" stroke="#fff" stroke-linecap="round" stroke-width="2" opacity="0.12"/>
        <path id="Path_93" data-name="Path 93" d="M15.7,49.011S4.794,44.643,3.133,36.2s4.5-14.388,3.713-23.439S0,0,0,0" transform="matrix(-0.326, -0.946, 0.946, -0.326, 589.756, 509.868)" fill="none" stroke="#fff" stroke-linecap="round" stroke-width="2" opacity="0.12"/>
        <ellipse id="Ellipse_26" data-name="Ellipse 26" cx="6" cy="6.5" rx="6" ry="6.5" transform="translate(633.121 471.621) rotate(30)" fill="#4f3a65"/>
        <circle id="Ellipse_24" data-name="Ellipse 24" cx="8.5" cy="8.5" r="8.5" transform="translate(627 513)" fill="#fac2a5"/>
        <circle id="Ellipse_21" data-name="Ellipse 21" cx="8.5" cy="8.5" r="8.5" transform="translate(628 514)" fill="#f6948d"/>
        <circle id="Ellipse_22" data-name="Ellipse 22" cx="3" cy="3" r="3" transform="translate(632 519)" fill="#fac2a5"/>
        <circle id="Ellipse_23" data-name="Ellipse 23" cx="3" cy="3" r="3" transform="translate(631 519)" fill="#f6948d"/>
      </g>
      <g id="sabad" transform="translate(154 1242)">
        <ellipse id="Ellipse_1" data-name="Ellipse 1" cx="22.5" cy="22" rx="22.5" ry="22" transform="translate(980 1001)" fill="#3b2e5a"/>
        <ellipse id="Ellipse_2" data-name="Ellipse 2" cx="22.5" cy="22" rx="22.5" ry="22" transform="translate(800 1001)" fill="#3b2e5a"/>
        <g id="Rectangle_1" data-name="Rectangle 1" transform="translate(1011.529 986.861) rotate(9)" fill="#d1a905" stroke="#d1a905" stroke-width="1">
          <rect width="17" height="29" rx="7" stroke="none"/>
          <rect x="0.5" y="0.5" width="16" height="28" rx="6.5" fill="none"/>
        </g>
        <g id="Rectangle_2" data-name="Rectangle 2" transform="translate(830.529 986.861) rotate(9)" fill="#d1a905" stroke="#d1a905" stroke-width="1">
          <rect width="17" height="29" rx="7" stroke="none"/>
          <rect x="0.5" y="0.5" width="16" height="28" rx="6.5" fill="none"/>
        </g>
        <path id="Path_1" data-name="Path 1" d="M1038.91,940.042s-205.736,1.5-214.548,0S801.017,891.632,844.746,883c41.862-8.267,145.551,0,145.551,0" transform="translate(-2 49)" fill="none" stroke="#d1a905" stroke-linecap="round" stroke-linejoin="round" stroke-width="6"/>
        <path id="Path_2" data-name="Path 2" d="M1008.99,766.255H824.27v112.78H991.352Z" transform="translate(-2 51)" fill="none" stroke="#d1a905" stroke-linecap="round" stroke-linejoin="round" stroke-width="5"/>
        <path id="Path_3-2" data-name="Path 3" d="M994.6,852.581H824.734V825.662H998.777l7.426-32.024H824.734V766.255h21.813V879.5l38.057-3.713V766.255H941.69L928.232,875.787,963.04,879.5l17.636-113.244" transform="translate(-2 51)" fill="none" stroke="#d1a905" stroke-width="4"/>
        <path id="Path_4-2" data-name="Path 4" d="M824.734,766.255s19.029-63.583-67.76-61.727" transform="translate(-2 51)" fill="none" stroke="#d1a905" stroke-width="5"/>
        <path id="Path_96" data-name="Path 96" d="M826.734,766.961s17.03-64.289-69.76-62.433" transform="translate(-4 75)" fill="none" stroke="#d1a905" stroke-width="5"/>
      </g>
    </g>
  </g>
</svg>
