<svg xmlns="http://www.w3.org/2000/svg" width="36.55" height="30.131" viewBox="0 0 36.55 30.131">
  <g id="نظرات" transform="translate(-1842 -578)">
    <g id="Path_13" data-name="Path 13" transform="translate(1842 578)" fill="none" stroke-linecap="round" stroke-linejoin="round">
      <path d="M6.645,0H29.9A6.453,6.453,0,0,1,36.55,6.243v10.4A6.453,6.453,0,0,1,29.9,22.889H18.012s-6.184,7.242-8.375,7.242-1.414-7.242-1.414-7.242H6.645A6.453,6.453,0,0,1,0,16.647V6.243A6.453,6.453,0,0,1,6.645,0Z" stroke="none"/>
      <path d="M 6.645484924316406 2.000001907348633 C 4.083953857421875 2.000001907348633 1.999996185302734 3.90321159362793 1.999996185302734 6.242572784423828 L 1.999996185302734 16.6468620300293 C 1.999996185302734 18.98622131347656 4.083953857421875 20.88943099975586 6.645484924316406 20.88943099975586 L 8.223705291748047 20.88943099975586 C 8.791275024414063 20.88943099975586 9.332124710083008 21.13058090209961 9.711444854736328 21.55278205871582 C 10.09077453613281 21.97499084472656 10.27284622192383 22.53847122192383 10.21229553222656 23.10281181335449 C 10.21107482910156 23.11412239074707 10.09088516235352 24.24954223632813 10.08988571166992 25.57940292358398 C 10.0891284942627 26.58370399475098 10.15645980834961 27.26693153381348 10.2331428527832 27.71901512145996 C 10.84650230407715 27.29601669311523 11.87780952453613 26.46415710449219 13.48784637451172 24.83990097045898 C 15.11519622802734 23.19818115234375 16.47788619995117 21.60634231567383 16.49128532409668 21.59065246582031 C 16.87126541137695 21.14568138122559 17.42705535888672 20.88943099975586 18.0121955871582 20.88943099975586 L 29.90468597412109 20.88943099975586 C 32.46621704101563 20.88943099975586 34.55016708374023 18.98622131347656 34.55016708374023 16.6468620300293 L 34.55016708374023 6.242572784423828 C 34.55016708374023 3.90321159362793 32.46621704101563 2.000001907348633 29.90468597412109 2.000001907348633 L 6.645484924316406 2.000001907348633 M 6.645484924316406 1.9073486328125e-06 L 29.90468597412109 1.9073486328125e-06 C 33.57488632202148 1.9073486328125e-06 36.55016708374023 2.794891357421875 36.55016708374023 6.242572784423828 L 36.55016708374023 16.6468620300293 C 36.55016708374023 20.09454154968262 33.57488632202148 22.88943099975586 29.90468597412109 22.88943099975586 L 18.0121955871582 22.88943099975586 C 18.0121955871582 22.88943099975586 11.82811546325684 30.13122177124023 9.637386322021484 30.13122177124023 C 7.4466552734375 30.13122177124023 8.223705291748047 22.88943099975586 8.223705291748047 22.88943099975586 L 6.645484924316406 22.88943099975586 C 2.975284576416016 22.88943099975586 -3.814697265625e-06 20.09454154968262 -3.814697265625e-06 16.6468620300293 L -3.814697265625e-06 6.242572784423828 C -3.814697265625e-06 2.794891357421875 2.975284576416016 1.9073486328125e-06 6.645484924316406 1.9073486328125e-06 Z" stroke="none" fill="#4e4d4d"/>
    </g>
    <path id="Path_14" data-name="Path 14" d="M1871.831,592.225h-23.043" transform="translate(0 -0.425)" fill="none" stroke="#4e4d4d" stroke-linecap="round" stroke-width="2"/>
    <path id="Path_15" data-name="Path 15" d="M1872.237,586.423H1848.9" transform="translate(0 1.341)" fill="none" stroke="#4e4d4d" stroke-linecap="round" stroke-width="2"/>
  </g>
</svg>
