<svg xmlns="http://www.w3.org/2000/svg" width="225.313" height="222.952" viewBox="0 0 225.313 222.952">
  <g id="TAKHFIF" transform="translate(-458.239 1012.673)">
    <path id="Path_6" data-name="Path 6" d="M663.379-967.754v60.736l-106.69,106.69-87.843-87.843L573.168-992.494h61.964" fill="none" stroke="#fff" stroke-linecap="round" stroke-width="15"/>
    <path id="Path_7" data-name="Path 7" d="M672.946-1002.067h0l-41.473,41.183" fill="none" stroke="#fff" stroke-linecap="round" stroke-width="15"/>
    <g id="Ellipse_1" data-name="Ellipse 1" transform="matrix(0.998, -0.07, 0.07, 0.998, 596.558, -969.286)" fill="none" stroke="#fff" stroke-linecap="round" stroke-width="15">
      <ellipse cx="20" cy="19.5" rx="20" ry="19.5" stroke="none"/>
      <ellipse cx="20" cy="19.5" rx="12.5" ry="12" fill="none"/>
    </g>
    <path id="Path_8" data-name="Path 8" d="M548.189-918.206l23.618,50.965" fill="none" stroke="#fff" stroke-linecap="round" stroke-width="15"/>
    <g id="Ellipse_2" data-name="Ellipse 2" transform="matrix(0.438, 0.899, -0.899, 0.438, 585.188, -914.506)" fill="none" stroke="#fff" stroke-linecap="round" stroke-width="8">
      <ellipse cx="13" cy="11" rx="13" ry="11" stroke="none"/>
      <ellipse cx="13" cy="11" rx="9" ry="7" fill="none"/>
    </g>
    <g id="Path_14" data-name="Path 14" transform="matrix(0.438, 0.899, -0.899, 0.438, 544.188, -904.506)" fill="none" stroke-linecap="round">
      <path d="M13,0c7.18,0,13,4.925,13,11S20.18,22,13,22,0,17.075,0,11,5.82,0,13,0Z" stroke="none"/>
      <path d="M 13 8 C 9.947799682617188 8 8 9.776800155639648 8 11 C 8 12.22319984436035 9.947799682617188 14 13 14 C 16.05220031738281 14 18 12.22319984436035 18 11 C 18 9.776800155639648 16.05220031738281 8 13 8 M 13 0 C 20.17970657348633 0 26 4.924871444702148 26 11 C 26 17.07513046264648 20.17970657348633 22 13 22 C 5.820293426513672 22 0 17.07513046264648 0 11 C 0 4.924871444702148 5.820293426513672 0 13 0 Z" stroke="none" fill="#fff"/>
    </g>
  </g>
</svg>
