<svg xmlns="http://www.w3.org/2000/svg" width="724.9" height="402.984" viewBox="0 0 724.9 402.984">
  <g id="Group_9" data-name="Group 9" transform="translate(4.13 -527.016)">
    <path id="Path_17" data-name="Path 17" d="M26.175,3579.016H526.993v322.827H109.936l1.659-322.827" transform="translate(0 -3045)" fill="rgba(255,255,255,0.08)" stroke="#fff" stroke-width="14"/>
    <path id="Path_18" data-name="Path 18" d="M171.4,3641.809H-4.13" transform="translate(0 -3045)" fill="none" stroke="#fff" stroke-width="8"/>
    <path id="Path_19" data-name="Path 19" d="M40.27,3702.73h194.12" transform="translate(0 -3045)" fill="none" stroke="#fff" stroke-width="9"/>
    <path id="Path_20" data-name="Path 20" d="M526.993,3670.721h90.473l94.995,145.59h-180.7" transform="translate(0 -3045)" fill="none" stroke="#fff" stroke-linecap="round" stroke-linejoin="round" stroke-width="9"/>
    <path id="Path_21" data-name="Path 21" d="M712.461,3816.311l-.1,87.686-180.4.4" transform="translate(0 -3045)" fill="none" stroke="#fff" stroke-width="9"/>
    <g id="Ellipse_2" data-name="Ellipse 2" transform="translate(191 786)" fill="#ff6363" stroke="#fff" stroke-width="8">
      <ellipse cx="68" cy="70.5" rx="68" ry="70.5" stroke="none"/>
      <ellipse cx="68" cy="70.5" rx="64" ry="66.5" fill="none"/>
    </g>
    <g id="Ellipse_4" data-name="Ellipse 4" transform="translate(532 789)" fill="#ff6363" stroke="#fff" stroke-width="8">
      <ellipse cx="68" cy="70.5" rx="68" ry="70.5" stroke="none"/>
      <ellipse cx="68" cy="70.5" rx="64" ry="66.5" fill="none"/>
    </g>
    <g id="Ellipse_3" data-name="Ellipse 3" transform="translate(228 825)" fill="none" stroke="#fff" stroke-width="9">
      <ellipse cx="31" cy="31.5" rx="31" ry="31.5" stroke="none"/>
      <ellipse cx="31" cy="31.5" rx="26.5" ry="27" fill="none"/>
    </g>
    <g id="Ellipse_5" data-name="Ellipse 5" transform="translate(569 828)" fill="none" stroke="#fff" stroke-width="9">
      <ellipse cx="31" cy="31.5" rx="31" ry="31.5" stroke="none"/>
      <ellipse cx="31" cy="31.5" rx="26.5" ry="27" fill="none"/>
    </g>
  </g>
</svg>
