<svg xmlns="http://www.w3.org/2000/svg" width="721.091" height="402.98" viewBox="0 0 721.091 402.98">
  <g id="Group_9" data-name="Group 9" transform="translate(4.13 -527.02)">
    <path id="Path_17" data-name="Path 17" d="M26.175,3579.02H526.993v322.827H109.936l1.659-322.827" transform="translate(0 -3045)" fill="rgba(255,255,255,0.08)" stroke="#fff" stroke-width="14"/>
    <path id="Path_18" data-name="Path 18" d="M171.4,3641.81H-4.13" transform="translate(0 -3045)" fill="none" stroke="#fff" stroke-width="8"/>
    <path id="Path_19" data-name="Path 19" d="M40.27,3702.73H234.39" transform="translate(0 -3045)" fill="none" stroke="#fff" stroke-width="9"/>
    <path id="Path_20" data-name="Path 20" d="M526.993,3670.72h90.473l94.995,145.59h-180.7" transform="translate(0 -3045)" fill="none" stroke="#fff" stroke-linecap="round" stroke-linejoin="round" stroke-width="9"/>
    <path id="Path_21" data-name="Path 21" d="M712.461,3816.31l-.1,87.686-180.4.4" transform="translate(0 -3045)" fill="none" stroke="#fff" stroke-width="9"/>
    <g id="Ellipse_2" data-name="Ellipse 2" transform="translate(191 786)" fill="#ce252c">
      <path d="M 68 137 C 59.37643432617188 137 51.01156616210938 135.2492828369141 43.13771820068359 131.7964935302734 C 39.34956359863281 130.1353302001953 35.6949348449707 128.07861328125 32.27532577514648 125.6834335327148 C 28.88443565368652 123.3083724975586 25.69504356384277 120.5800018310547 22.79573822021484 117.5741119384766 C 19.89402198791504 114.5656967163086 17.2592601776123 111.2548294067383 14.96460914611816 107.7334365844727 C 12.64686965942383 104.1766052246094 10.65604305267334 100.3738479614258 9.047412872314453 96.43082427978516 C 5.698195457458496 88.22123718261719 4 79.49684906005859 4 70.5 C 4 61.50315093994141 5.698195457458496 52.77875900268555 9.047412872314453 44.56917572021484 C 10.65604305267334 40.62615203857422 12.64686965942383 36.82339096069336 14.96460914611816 33.26656341552734 C 17.2592601776123 29.74517440795898 19.89402198791504 26.43430519104004 22.79573822021484 23.4258918762207 C 25.69504356384277 20.42000007629395 28.88443565368652 17.69163131713867 32.27532577514648 15.31656551361084 C 35.6949348449707 12.92139148712158 39.34956359863281 10.86467361450195 43.13771820068359 9.203499794006348 C 51.01156616210938 5.750717163085938 59.37643432617188 4 68 4 C 76.62356567382813 4 84.98843383789063 5.750717163085938 92.86228179931641 9.203499794006348 C 96.65043640136719 10.86467361450195 100.3050689697266 12.92139148712158 103.7246704101563 15.31656551361084 C 107.1155624389648 17.69163131713867 110.3049545288086 20.42000007629395 113.2042617797852 23.4258918762207 C 116.1059799194336 26.43430519104004 118.7407379150391 29.74517440795898 121.0353927612305 33.26656341552734 C 123.3531341552734 36.82339096069336 125.3439559936523 40.62615203857422 126.9525833129883 44.56917572021484 C 130.3018035888672 52.77875900268555 132 61.50315093994141 132 70.5 C 132 79.49684906005859 130.3018035888672 88.22123718261719 126.9525833129883 96.43082427978516 C 125.3439559936523 100.3738479614258 123.3531341552734 104.1766052246094 121.0353927612305 107.7334365844727 C 118.7407379150391 111.2548294067383 116.1059799194336 114.5656967163086 113.2042617797852 117.5741119384766 C 110.3049545288086 120.5800018310547 107.1155624389648 123.3083724975586 103.7246704101563 125.6834335327148 C 100.3050689697266 128.07861328125 96.65043640136719 130.1353302001953 92.86228179931641 131.7964935302734 C 84.98843383789063 135.2492828369141 76.62356567382813 137 68 137 Z" stroke="none"/>
      <path d="M 68 8 C 34.9158935546875 8 8 36.03739166259766 8 70.5 C 8 104.9626007080078 34.9158935546875 133 68 133 C 101.0841064453125 133 128 104.9626007080078 128 70.5 C 128 36.03739166259766 101.0841064453125 8 68 8 M 68 0 C 105.5553665161133 0 136 31.56391906738281 136 70.5 C 136 109.4360809326172 105.5553665161133 141 68 141 C 30.44463348388672 141 0 109.4360809326172 0 70.5 C 0 31.56391906738281 30.44463348388672 0 68 0 Z" stroke="none" fill="#fff"/>
    </g>
    <g id="Ellipse_4" data-name="Ellipse 4" transform="translate(532 789)" fill="#ce252c" stroke="#fff" stroke-width="8">
      <ellipse cx="68" cy="70.5" rx="68" ry="70.5" stroke="none"/>
      <ellipse cx="68" cy="70.5" rx="64" ry="66.5" fill="none"/>
    </g>
    <g id="Ellipse_3" data-name="Ellipse 3" transform="translate(228 825)" fill="none" stroke="#fff" stroke-width="9">
      <ellipse cx="31" cy="31.5" rx="31" ry="31.5" stroke="none"/>
      <ellipse cx="31" cy="31.5" rx="26.5" ry="27" fill="none"/>
    </g>
    <g id="Ellipse_5" data-name="Ellipse 5" transform="translate(569 828)" fill="none" stroke="#fff" stroke-width="9">
      <ellipse cx="31" cy="31.5" rx="31" ry="31.5" stroke="none"/>
      <ellipse cx="31" cy="31.5" rx="26.5" ry="27" fill="none"/>
    </g>
  </g>
</svg>
