<svg xmlns="http://www.w3.org/2000/svg" width="36" height="25" viewBox="0 0 36 25">
  <g id="لیست_" data-name="لیست " transform="translate(-1841 -523)">
    <g id="Path_24" data-name="Path 24" transform="translate(1844.582 529.208) rotate(-11)" fill="#4e4d4d">
      <path d="M 2.093147277832031 3.736788034439087 C 1.622057318687439 3.736788034439087 1.191107273101807 3.561188220977783 0.8796873092651367 3.242348194122314 C 0.5925172567367554 2.948338031768799 0.4396972954273224 2.559728145599365 0.4493872821331024 2.148108243942261 C 0.4710072875022888 1.230248093605042 1.278777241706848 0.4681981205940247 2.250047206878662 0.4493681192398071 C 2.262227296829224 0.449128121137619 2.274517297744751 0.4490081369876862 2.286627292633057 0.4490081369876862 C 2.757717370986938 0.4490081369876862 3.188667297363281 0.6246081590652466 3.500087261199951 0.9434481263160706 C 3.787257194519043 1.237458109855652 3.940077304840088 1.626068115234375 3.930387258529663 2.037688016891479 C 3.908767223358154 2.955548048019409 3.10099720954895 3.71759819984436 2.129727363586426 3.736428022384644 C 2.117547273635864 3.736668109893799 2.105257272720337 3.736788034439087 2.093147277832031 3.736788034439087 Z" stroke="none"/>
      <path d="M 2.286627292633057 0.9490082263946533 C 2.277747392654419 0.9490082263946533 2.268747329711914 0.9490981101989746 2.259747266769409 0.949268102645874 C 1.564517259597778 0.9627480506896973 0.9643871784210205 1.517138242721558 0.9492473602294922 2.159868240356445 C 0.940927267074585 2.513458251953125 1.101337194442749 2.753708124160767 1.237377166748047 2.892978191375732 C 1.453927278518677 3.114688158035278 1.757847309112549 3.236788272857666 2.093147277832031 3.236788272857666 C 2.102027177810669 3.236788272857666 2.111027240753174 3.236698150634766 2.120027303695679 3.236528158187866 C 2.81525731086731 3.223048210144043 3.415387153625488 2.668658256530762 3.430527210235596 2.025928020477295 C 3.438847303390503 1.672338247299194 3.27843713760376 1.432088136672974 3.142397403717041 1.292818069458008 C 2.925847291946411 1.071108102798462 2.621927261352539 0.9490082263946533 2.286627292633057 0.9490082263946533 M 2.286630392074585 -0.05099105834960938 C 3.502102613449097 -0.05099105834960938 4.457770347595215 0.8804078102111816 4.43024730682373 2.049458026885986 C 4.402367115020752 3.233248233795166 3.376737117767334 4.212347984313965 2.139417171478271 4.236338138580322 C 2.124011278152466 4.236636638641357 2.108469009399414 4.23678731918335 2.093144178390503 4.23678731918335 C 0.8776719570159912 4.23678731918335 -0.07799577713012695 3.305388450622559 -0.05047273635864258 2.136338233947754 C -0.02259254455566406 0.9525480270385742 1.003037214279175 -0.02655172348022461 2.240357398986816 -0.05054187774658203 C 2.255763292312622 -0.05084037780761719 2.271305561065674 -0.05099105834960938 2.286630392074585 -0.05099105834960938 Z" stroke="none" fill="#4e4d4d"/>
    </g>
    <g id="Path_23" data-name="Path 23" transform="translate(1844.551 534.5) rotate(-11)" fill="#4e4d4d">
      <path d="M 2.093147277832031 3.898142576217651 C 1.63729727268219 3.898142576217651 1.216057300567627 3.724052429199219 0.9070372581481934 3.407942533493042 C 0.6017772555351257 3.095672607421875 0.4392472803592682 2.677332639694214 0.4493972957134247 2.229992628097534 C 0.4712372720241547 1.267702579498291 1.279177308082581 0.4689125418663025 2.250417232513428 0.4493725299835205 C 2.262467384338379 0.4491325318813324 2.274627208709717 0.4490025341510773 2.286627292633057 0.4490025341510773 C 2.742477178573608 0.4490025341510773 3.163717269897461 0.6230925321578979 3.472737312316895 0.9392025470733643 C 3.777997255325317 1.251472592353821 3.940527200698853 1.669812560081482 3.930377244949341 2.117152452468872 C 3.9085373878479 3.079442501068115 3.100597381591797 3.878232479095459 2.12935733795166 3.897772550582886 C 2.117307186126709 3.898012638092041 2.105147361755371 3.898142576217651 2.093147277832031 3.898142576217651 Z" stroke="none"/>
      <path d="M 2.286627292633057 0.9490025043487549 C 2.277957201004028 0.9490025043487549 2.269177198410034 0.9490926265716553 2.260477304458618 0.949272632598877 C 1.553327322006226 0.9635026454925537 0.9651172161102295 1.543122529983521 0.9492673873901367 2.241332530975342 C 0.942197322845459 2.553012371063232 1.054177284240723 2.843192577362061 1.26458740234375 3.058432579040527 C 1.478737354278564 3.277492523193359 1.772997379302979 3.398142576217651 2.093147277832031 3.398142576217651 C 2.10181736946106 3.398142576217651 2.110597372055054 3.398052453994751 2.11929726600647 3.397872447967529 C 2.826447248458862 3.383642673492432 3.414657354354858 2.804022550582886 3.430507183074951 2.105812549591064 C 3.437577247619629 1.794132471084595 3.325597286224365 1.503952503204346 3.115187168121338 1.288712501525879 C 2.901037216186523 1.069652557373047 2.606777191162109 0.9490025043487549 2.286627292633057 0.9490025043487549 M 2.286625385284424 -0.05099344253540039 C 3.502097606658936 -0.05099344253540039 4.457770347595215 0.9154567718505859 4.43024730682373 2.128492593765259 C 4.402367115020752 3.356832504272461 3.376737117767334 4.372772693634033 2.139417171478271 4.397672653198242 C 2.124011278152466 4.397982597351074 2.108474016189575 4.398138523101807 2.093149185180664 4.398138523101807 C 0.8776769638061523 4.398138523101807 -0.07799577713012695 3.43168830871582 -0.05047273635864258 2.218652486801147 C -0.02259254455566406 0.9903125762939453 1.003037214279175 -0.02562761306762695 2.240357398986816 -0.05052757263183594 C 2.255763292312622 -0.05083751678466797 2.271300554275513 -0.05099344253540039 2.286625385284424 -0.05099344253540039 Z" stroke="none" fill="#4e4d4d"/>
    </g>
    <g id="Path_22" data-name="Path 22" transform="translate(1844.572 540.057) rotate(-11)" fill="#4e4d4d">
      <path d="M 2.093147277832031 3.790252685546875 C 1.627177238464355 3.790252685546875 1.199467301368713 3.615142822265625 0.8887972831726074 3.297162771224976 C 0.5955972671508789 2.997062683105469 0.4395472705364227 2.598622798919678 0.4493872821331024 2.175232648849487 C 0.4710872769355774 1.242652773857117 1.278907299041748 0.4684327244758606 2.250167369842529 0.449362725019455 C 2.262307167053223 0.4491327106952667 2.27455735206604 0.4490127265453339 2.286627292633057 0.4490127265453339 C 2.752597332000732 0.4490127265453339 3.180307388305664 0.6241227388381958 3.49097728729248 0.9421027302742004 C 3.784177303314209 1.242202758789063 3.940227270126343 1.640642762184143 3.930387258529663 2.064032793045044 C 3.908687353134155 2.996612787246704 3.10086727142334 3.770832777023315 2.129607200622559 3.789902687072754 C 2.117467403411865 3.790132761001587 2.105217218399048 3.790252685546875 2.093147277832031 3.790252685546875 Z" stroke="none"/>
      <path d="M 2.286627292633057 0.9490127563476563 C 2.277747392654419 0.9490127563476563 2.268747329711914 0.9491026401519775 2.259987354278564 0.949272632598877 C 1.552797317504883 0.9631526470184326 0.9648072719573975 1.518332719802856 0.9492573738098145 2.186852693557739 C 0.9425673484802246 2.474522590637207 1.048107385635376 2.744742870330811 1.246437311172485 2.947742700576782 C 1.462237358093262 3.168612718582153 1.762937307357788 3.290252685546875 2.093147277832031 3.290252685546875 C 2.102027177810669 3.290252685546875 2.111027240753174 3.290162801742554 2.119787216186523 3.289992809295654 C 2.826977252960205 3.276112794876099 3.41496729850769 2.720932722091675 3.430517196655273 2.052412748336792 C 3.437207221984863 1.764742612838745 3.331667423248291 1.4945228099823 3.133337259292603 1.291522741317749 C 2.917537212371826 1.070652723312378 2.6168372631073 0.9490127563476563 2.286627292633057 0.9490127563476563 M 2.286632061004639 -0.05099201202392578 C 3.50210428237915 -0.05099201202392578 4.457770347595215 0.8920161724090576 4.43024730682373 2.075652837753296 C 4.402367115020752 3.274202823638916 3.376737117767334 4.265512943267822 2.139417171478271 4.289802551269531 C 2.124011278152466 4.29010534286499 2.10846734046936 4.290257453918457 2.093142509460449 4.290257453918457 C 0.8776702880859375 4.290257453918457 -0.07799577713012695 3.347249269485474 -0.05047273635864258 2.163612604141235 C -0.02259254455566406 0.9650626182556152 1.003037214279175 -0.02624750137329102 2.240357398986816 -0.050537109375 C 2.255763292312622 -0.05083990097045898 2.271307229995728 -0.05099201202392578 2.286632061004639 -0.05099201202392578 Z" stroke="none" fill="#4e4d4d"/>
    </g>
    <path id="Path_10" data-name="Path 10" d="M1878.224,523.5H1860.9" transform="translate(-8 7)" fill="none" stroke="#4e4d4d" stroke-linecap="round" stroke-linejoin="round" stroke-width="3"/>
    <path id="Path_11" data-name="Path 11" d="M1878.224,523.5H1860.9" transform="translate(-8 13)" fill="none" stroke="#4e4d4d" stroke-linecap="round" stroke-linejoin="round" stroke-width="3"/>
    <path id="Path_12" data-name="Path 12" d="M1878.224,523.5H1860.9" transform="translate(-8 19)" fill="none" stroke="#4e4d4d" stroke-linecap="round" stroke-linejoin="round" stroke-width="3"/>
    <g id="Rectangle_4" data-name="Rectangle 4" transform="translate(1841 523)" fill="none" stroke="#707070" stroke-linecap="round" stroke-linejoin="round" stroke-width="1.5">
      <rect width="36" height="25" stroke="none"/>
      <rect x="0.75" y="0.75" width="34.5" height="23.5" fill="none"/>
    </g>
  </g>
</svg>
