<svg xmlns="http://www.w3.org/2000/svg" width="50.105" height="40.306" viewBox="0 0 50.105 40.306">
  <g id="سفارشات" transform="translate(-1839 -469.694)">
    <path id="Path_4" data-name="Path 4" d="M1887.79,497.106V480.9l-19.884,9.443v16.671Z" fill="none" stroke="#4e4d4d" stroke-linecap="round" stroke-linejoin="round" stroke-width="2"/>
    <path id="Path_5" data-name="Path 5" d="M1865.654,489.787l-17.21-9.66-.194,11.142" transform="matrix(1, -0.017, 0.017, 1, -6.388, 32.487)" fill="none" stroke="#4e4d4d" stroke-linecap="round" stroke-linejoin="round" stroke-width="2"/>
    <path id="Path_6" data-name="Path 6" d="M1848.528,478.641c.37-.173,18.551-9.3,18.551-9.3l18.444,10.006" transform="translate(2.227 1.354)" fill="none" stroke="#4e4d4d" stroke-linecap="round" stroke-linejoin="round" stroke-width="2"/>
    <path id="Path_7" data-name="Path 7" d="M1857.593,502.409l9.936,4.795" fill="none" stroke="#4e4d4d" stroke-linecap="round" stroke-width="2"/>
    <path id="Path_8" data-name="Path 8" d="M1880.933,483.787v7.2l-4.73,1.74-.289-6.328-18.132-9.527,5.9-3.2Z" fill="none" stroke="#4e4d4d" stroke-linecap="round" stroke-linejoin="round" stroke-width="2"/>
    <g id="Ellipse_2" data-name="Ellipse 2" transform="translate(1839 491)" fill="none" stroke="#4e4d4d" stroke-width="2">
      <circle cx="9.5" cy="9.5" r="9.5" stroke="none"/>
      <circle cx="9.5" cy="9.5" r="8.5" fill="none"/>
    </g>
    <path id="Path_9" data-name="Path 9" d="M1842.074,500.423l3.333,4.706,8.04-7.549" transform="translate(1)" fill="none" stroke="#707070" stroke-linecap="round" stroke-linejoin="round" stroke-width="2"/>
  </g>
</svg>
