<svg xmlns="http://www.w3.org/2000/svg" width="33" height="33" viewBox="0 0 33 33">
  <g id="Polygon_1" data-name="Polygon 1" transform="translate(33 33) rotate(180)" fill="#38ade1">
    <path d="M 26.31825065612793 31.19905471801758 C 26.1582202911377 31.19907569885254 25.99419021606445 31.18361473083496 25.8306999206543 31.15309524536133 L 17.14224052429199 29.5312442779541 C 16.93098068237305 29.4918155670166 16.71489906311035 29.47182464599609 16.5 29.47182464599609 C 16.28510093688965 29.47182464599609 16.06901931762695 29.4918155670166 15.85776996612549 29.5312442779541 L 7.169300079345703 31.15309524536133 C 7.005919933319092 31.18359565734863 6.841859817504883 31.19905471801758 6.681690216064453 31.19905471801758 C 5.762539863586426 31.19905471801758 4.921229839324951 30.67733573913574 4.48606014251709 29.83749580383301 C 4.050899982452393 28.99768447875977 4.118969917297363 28.03182411193848 4.668129920959473 27.25383567810059 L 10.71004009246826 18.69446563720703 C 10.91012954711914 18.41099548339844 11.06659030914307 18.10019493103027 11.17508029937744 17.77069473266602 L 14.12541007995605 8.81043529510498 C 14.54251956939697 7.543654918670654 15.62553977966309 7.092304706573486 16.5 7.092304706573486 C 17.37446022033691 7.092304706573486 18.45747947692871 7.543654918670654 18.87458038330078 8.8104248046875 L 21.82492065429688 17.77070426940918 C 21.93341064453125 18.10019493103027 22.08987045288086 18.41099548339844 22.28994941711426 18.69445419311523 L 28.33186912536621 27.25383567810059 C 28.88092041015625 28.03166580200195 28.9489803314209 28.99738502502441 28.51391983032227 29.83713531494141 C 28.07876014709473 30.67708396911621 27.23743057250977 31.19894409179688 26.31825065612793 31.19905471801758 Z" stroke="none"/>
    <path d="M 16.5 7.592306137084961 C 15.80043029785156 7.592306137084961 14.93400955200195 7.953386306762695 14.6003303527832 8.966806411743164 L 11.64999008178711 17.92708587646484 C 11.52597999572754 18.30368614196777 11.3471794128418 18.65887641906738 11.1185302734375 18.98280715942383 L 5.076620101928711 27.54217720031738 C 4.443300247192383 28.43937683105469 4.763099670410156 29.28537750244141 4.929990768432617 29.60746765136719 C 5.278879165649414 30.28078651428223 5.950090408325195 30.69905662536621 6.681690216064453 30.69905662536621 C 6.811159133911133 30.69905662536621 6.94434928894043 30.68644714355469 7.077550888061523 30.66158676147461 L 15.76600074768066 29.03973770141602 C 16.0074405670166 28.99466705322266 16.25439071655273 28.97181701660156 16.5 28.97181701660156 C 16.7455997467041 28.97181701660156 16.99254989624023 28.99466705322266 17.23398971557617 29.03973770141602 L 25.92243003845215 30.66158676147461 C 26.05565071105957 30.68644714355469 26.18883895874023 30.69905662536621 26.31830978393555 30.69905662536621 C 27.0498104095459 30.69905662536621 27.72097015380859 30.28074645996094 28.06987953186035 29.60737609863281 C 28.23678016662598 29.28527641296387 28.55661010742188 28.43924713134766 27.92337989807129 27.54217720031738 L 21.88146018981934 18.98279762268066 C 21.65279960632324 18.65884590148926 21.47399139404297 18.30364608764648 21.35000038146973 17.92707633972168 L 18.39966011047363 8.966806411743164 C 18.06597900390625 7.953386306762695 17.19956970214844 7.592306137084961 16.5 7.592306137084961 M 16.49999809265137 6.592306137084961 C 17.69846343994141 6.592306137084961 18.89692497253418 7.279556274414063 19.3494987487793 8.654056549072266 L 22.29983901977539 17.61432647705078 C 22.39276123046875 17.89654731750488 22.527099609375 18.16338729858398 22.69844055175781 18.40612602233887 L 28.74034881591797 26.96549606323242 C 30.17719078063965 29.00102233886719 28.65124702453613 31.69905853271484 26.31830978393555 31.69905853271484 C 26.12995147705078 31.69905853271484 25.93670082092285 31.68152046203613 25.73894882202148 31.64460754394531 L 17.05049133300781 30.02275657653809 C 16.86856460571289 29.98879623413086 16.68428230285645 29.97181701660156 16.5 29.97181701660156 C 16.31571769714355 29.97181701660156 16.13143539428711 29.98879623413086 15.94951057434082 30.02275657653809 L 7.261049270629883 31.64460754394531 C 7.063461303710938 31.68148994445801 6.869901657104492 31.69905853271484 6.68168830871582 31.69905853271484 C 4.348484039306641 31.69905853271484 2.822713851928711 29.00115585327148 4.259649276733398 26.96549606323242 L 10.30155944824219 18.40612602233887 C 10.472900390625 18.16338729858398 10.60722923278809 17.89654731750488 10.70015907287598 17.61432647705078 L 13.65048980712891 8.654056549072266 C 14.10306930541992 7.279556274414063 15.30153465270996 6.592306137084961 16.49999809265137 6.592306137084961 Z" stroke="none" fill="#38ade1"/>
  </g>
</svg>
